<?xml version="1.0" encoding="UTF-8"?><svg id="Layer_1" xmlns="http://www.w3.org/2000/svg" viewBox="0 0 176.66 62.78"><defs><style>.cls-1{stroke:#d60b52;stroke-width:.51px;}.cls-1,.cls-2,.cls-3,.cls-4{fill:none;stroke-miterlimit:10;}.cls-5,.cls-6{fill:#575756;}.cls-2{stroke-width:.24px;}.cls-2,.cls-3,.cls-4{stroke:#fff;}.cls-3{stroke-width:.16px;}.cls-6{font-family:HelveticaNeue-Thin, 'Helvetica Neue';font-size:4.33px;font-weight:200;letter-spacing:.2em;}.cls-4{stroke-width:1.91px;}</style></defs><text class="cls-6" transform="translate(63.23 61.53) rotate(-90)"><tspan x="0" y="0">MEMBER OF</tspan></text><path class="cls-5" d="M104.94.33c16.9,0,30.6,13.7,30.6,30.6s-13.7,30.6-30.6,30.6V.33Z"/><path class="cls-5" d="M67.39,27.97V.33c15.26,0,27.64,12.37,27.64,27.64h-27.64Z"/><polygon class="cls-5" points="98.27 61.53 67.39 61.53 67.39 30.66 98.27 61.53"/><polygon class="cls-5" points="168.14 61.53 137.26 61.53 152.7 .33 168.14 61.53"/><circle class="cls-1" cx="167.49" cy="3.9" r="3.24"/><rect class="cls-1" x="166.57" y="2.05" width="1.86" height="1.86"/><line class="cls-1" x1="166.57" y1="5.76" x2="166.57" y2="3.9"/><line class="cls-1" x1="168.42" y1="5.76" x2="166.57" y2="3.9"/><line class="cls-1" x1="166.57" y1="3.9" x2="168.42" y2="3.9"/><path class="cls-4" d="M16.6,31.65c-3.99,0-7.74-1.55-10.57-4.38-2.82-2.82-4.38-6.58-4.38-10.57s1.55-7.74,4.38-10.57c2.82-2.82,6.58-4.38,10.57-4.38s7.74,1.55,10.57,4.38c2.82,2.82,4.38,6.57,4.38,10.57"/><path class="cls-4" d="M23.06,16.71c0-1.73-.67-3.35-1.89-4.57s-2.84-1.89-4.57-1.89-3.35.67-4.57,1.89c-1.22,1.22-1.89,2.84-1.89,4.57s.67,3.35,1.89,4.57c1.22,1.22,2.84,1.89,4.57,1.89"/><path class="cls-4" d="M16.6,31.65c3.99,0,7.74,1.55,10.57,4.38s4.38,6.57,4.38,10.57-1.55,7.74-4.38,10.57c-2.82,2.82-6.57,4.38-10.57,4.38s-7.74-1.55-10.57-4.38c-2.82-2.82-4.38-6.57-4.38-10.57"/><path class="cls-4" d="M10.14,46.59c0,1.73.67,3.35,1.89,4.57,1.22,1.22,2.84,1.89,4.57,1.89s3.35-.67,4.57-1.89c1.22-1.22,1.89-2.84,1.89-4.57s-.67-3.35-1.89-4.57c-1.22-1.22-2.84-1.89-4.57-1.89"/><path class="cls-2" d="M9.03,24.27c-1.94-1.94-3.13-4.61-3.13-7.57s1.2-5.63,3.13-7.57,4.61-3.13,7.57-3.13,5.63,1.2,7.57,3.13,3.13,4.61,3.13,7.57"/><path class="cls-2" d="M24.27,24.18c-1.91,1.96-4.57,3.19-7.53,3.23s-5.65-1.13-7.61-3.04-3.19-4.57-3.23-7.53c-.04-2.96,1.13-5.65,3.04-7.61s4.57-3.19,7.53-3.23"/><path class="cls-2" d="M24.17,39.02c1.94,1.94,3.13,4.61,3.13,7.57s-1.2,5.63-3.13,7.57-4.61,3.13-7.57,3.13-5.63-1.2-7.57-3.13-3.13-4.61-3.13-7.57"/><path class="cls-2" d="M8.94,39.12c1.91-1.96,4.57-3.19,7.53-3.23s5.65,1.12,7.61,3.04,3.19,4.57,3.23,7.53-1.12,5.65-3.04,7.61-4.57,3.19-7.53,3.23"/><line class="cls-3" x1="41.69" y1="27.43" x2="50.13" y2="35.87"/><line class="cls-3" x1="41.69" y1="35.87" x2="50.13" y2="27.43"/></svg>