<?xml version="1.0" encoding="UTF-8"?><svg id="Layer_1" xmlns="http://www.w3.org/2000/svg" viewBox="0 0 176.66 62.78"><defs><style>.cls-1{font-family:HelveticaNeue-Thin, 'Helvetica Neue';font-size:3.97px;font-weight:200;letter-spacing:.2em;}.cls-1,.cls-2{fill:#575756;}.cls-3{stroke:#d60b52;stroke-width:.51px;}.cls-3,.cls-4,.cls-5,.cls-6,.cls-7{fill:none;stroke-miterlimit:10;}.cls-4{opacity:.33;}.cls-4,.cls-5,.cls-6,.cls-7{stroke:#fff;}.cls-4,.cls-7{stroke-width:.75px;}.cls-5{stroke-width:.64px;}.cls-6{stroke-width:.21px;}.cls-7{opacity:.1;}</style></defs><path class="cls-2" d="M103.1,1.31c16.87,0,30.55,13.68,30.55,30.55s-13.68,30.55-30.55,30.55V1.31Z"/><path class="cls-2" d="M65.61,28.56V.97c15.24,0,27.59,12.35,27.59,27.59h-27.59Z"/><polygon class="cls-2" points="96.43 62.4 65.61 62.4 65.61 31.58 96.43 62.4"/><polygon class="cls-2" points="166.19 62.4 135.36 62.4 150.77 1.31 166.19 62.4"/><text class="cls-1" transform="translate(61.34 62.25) rotate(-90)"><tspan x="0" y="0">MEMBER OF</tspan></text><circle class="cls-3" cx="173.17" cy="4.59" r="3.23"/><rect class="cls-3" x="172.24" y="2.74" width="1.85" height="1.85"/><line class="cls-3" x1="172.24" y1="6.44" x2="172.24" y2="4.59"/><line class="cls-3" x1="174.1" y1="6.44" x2="172.24" y2="4.59"/><line class="cls-3" x1="172.24" y1="4.59" x2="174.1" y2="4.59"/><path class="cls-4" d="M17.05.37C7.85.37.37,7.86.37,17.05s7.48,16.68,16.68,16.68c6.62,0,12,5.38,12,12s-5.38,12-12,12v4.67c9.19,0,16.68-7.48,16.68-16.68s-7.48-16.68-16.68-16.68c-6.62,0-12-5.38-12-12s5.38-12,12-12V.37"/><path class="cls-7" d="M17.05,62.4C7.85,62.4.37,54.92.37,45.73s7.48-16.68,16.68-16.68c6.62,0,12-5.38,12-12s-5.38-12-12-12V.37c9.19,0,16.68,7.48,16.68,16.68s-7.48,16.68-16.68,16.68c-6.62,0-12,5.38-12,12s5.38,12,12,12v4.67"/><path class="cls-6" d="M17.05,57.73c-6.62,0-12-5.38-12-12s5.38-12,12-12c9.19,0,16.68-7.48,16.68-16.68S26.24.37,17.05.37"/><path class="cls-5" d="M17.05.37C7.85.37.37,7.86.37,17.05s7.48,16.68,16.68,16.68c6.62,0,12,5.38,12,12s-5.38,12-12,12"/></svg>